# xmcd
#
# Track frame offsets:
#	182
#	19895
#	38877
#	59707
#
# Disc length: 1137 seconds
#
# Revision: 1
# Processed by: cddbd v1.5.1PL0 Copyright (c) Steve Scherf et al.
# Submitted via: EasyCDDAExtractor 8.0.2.1
#
DISCID=33046f04
DTITLE=Various Artist - Wreckx Shop
DYEAR=1994
DGENRE=Hip-Hop
TTITLE0=Wreckx ' N´ Effect - Wreckx Shop (Full Crew Mix) (feat Apache Inian)
TTITLE1=Wreckx ´N´ Effect - Wreckx Shop (Jamaica Mix)
TTITLE2=Wreckx ´N´ Effect - Wreckx Shop (Slaughterhouse Mix)
TTITLE3=Wreckx ´N´ Effect - My Cutie (Extended Mix feat Tammy Lucas)
EXTD=Richie P and Press Remixes Featuring Apache Indian
EXTT0=
EXTT1=
EXTT2=
EXTT3=
PLAYORDER=
